<svg width="64" height="64" viewBox="0 0 64 64" xmlns="http://www.w3.org/2000/svg" role="img" aria-label="Operation Red Trophy">
  <defs>
    <linearGradient id="gRed" x1="0" y1="0" x2="1" y2="1">
      <stop offset="0%" stop-color="#ff3b30"/>
      <stop offset="100%" stop-color="#da1818"/>
    </linearGradient>
    <linearGradient id="gGold" x1="0" y1="0" x2="0" y2="1">
      <stop offset="0%" stop-color="#ffd36a"/>
      <stop offset="100%" stop-color="#a7771f"/>
    </linearGradient>
  </defs>
  <rect x="2" y="2" width="60" height="60" rx="14" fill="#0e0f13" stroke="#2a2b31"/>
  <path d="M20 19h24v5c0 8-5 15-12 17-7-2-12-9-12-17v-5z" fill="url(#gGold)"/>
  <rect x="28" y="40" width="8" height="7" rx="1.5" fill="url(#gGold)"/>
  <rect x="23" y="46" width="18" height="4" rx="1.5" fill="url(#gGold)"/>
  <path d="M23 34v-7a9 9 0 0 1 18 0v7" fill="none" stroke="url(#gRed)" stroke-width="3" stroke-linecap="round"/>
  <rect x="21" y="33" width="22" height="14" rx="4" fill="#121318" stroke="url(#gRed)" stroke-width="2"/>
  <circle cx="32" cy="40" r="2.5" fill="url(#gRed)"/>
</svg>
